# xmcd
#
# Track frame offsets:
#	150
#	40216
#	79476
#	146224
#	180143
#	200822
#	237967
#
# Disc length: 3446 seconds
#
# Revision: 4031505304
# Processed by: cddbd v1.5.2PL0 Copyright (c) Steve Scherf et al.
# Submitted via: EZCDAudioConverter 8.0.2.1
#
DISCID=600d7407
DTITLE=Thanh Thảo - Dance Remix
DYEAR=2010
DGENRE=World Pop
TTITLE0=Part 1. Dance Remix 2010
TTITLE1=Part 2. Dance Remix 2010
TTITLE2=Part 3. Dance Remix 2010
TTITLE3=Part 4. Dance Remix 2010
TTITLE4=Linh hồn giọt nước mắt (Remix)
TTITLE5=Part 5. Dance Remix 2010
TTITLE6=Vì em còn yêu (Remix)
EXTD=
EXTT0=
EXTT1=
EXTT2=
EXTT3=
EXTT4=
EXTT5=
EXTT6=
PLAYORDER=
